<?xml version="1.0" encoding="iso-8859-1"?>
<!-- Generator: Adobe Illustrator 17.1.0, SVG Export Plug-In . SVG Version: 6.00 Build 0)  -->
<!DOCTYPE svg PUBLIC "-//W3C//DTD SVG 1.1//EN" "http://www.w3.org/Graphics/SVG/1.1/DTD/svg11.dtd">
<svg version="1.1" id="Capa_1" xmlns="http://www.w3.org/2000/svg" xmlns:xlink="http://www.w3.org/1999/xlink" x="0px" y="0px"
	 viewBox="0 0 344.753 344.753" style="enable-background:new 0 0 344.753 344.753;" xml:space="preserve">
<g>
	<path d="M324.738,67.753l-8.622-32.907c-1.865-7.116-9.088-12.69-16.443-12.69h-35.208l-2.48-9.464
		C260.121,5.575,252.898,0,245.542,0H99.211c-7.356,0-14.579,5.575-16.442,12.69l-2.48,9.465H45.081
		c-7.355,0-14.578,5.574-16.443,12.69l-8.622,32.907c-0.969,3.696-0.311,7.391,1.808,10.135c2.117,2.744,5.523,4.318,9.346,4.318
		h8.439l28.235,242.198c1.309,11.221,11.563,20.349,22.858,20.349h163.352c11.296,0,21.55-9.128,22.858-20.349l28.235-242.198h8.439
		c3.822,0,7.229-1.574,9.346-4.318C325.048,75.144,325.707,71.449,324.738,67.753z M208.419,218.532
		c-23.626,28.968-58.949,39.345-78.86,23.088c-15.105-12.342-16.963-36.398-6.708-59.962c3.3-7.492,7.737-14.999,13.432-21.952
		c2.457-3.056,5.159-5.757,7.86-8.398c3.531-3.408,7.246-6.585,11.084-9.288c8.995-6.293,18.467-10.254,27.586-11.927
		c12.173-2.287,23.749-0.491,32.33,6.524C235.1,152.875,232.045,189.518,208.419,218.532z"/>
	<path d="M202.774,157.668c-1.732-0.75-5.332-2.008-9.977-2.008c-6.364,0-12.522,2.4-17.806,6.938
		c-5.247,4.501-9.8,11.289-13.529,20.172c-1.633,3.882-2.918,7.483-4.038,11.32c-5.249,14.654-12.898,16.645-14.386,16.896
		c-2.834,0.481-4.14,2.475-4.417,4.18c-0.345,2.12,0.688,4.16,2.635,5.199c1.377,0.733,5.11,2.439,10.014,2.439
		c0.001,0,0.001,0,0.002,0c7.84,0,18.882-4.216,26.969-24.293l1.083-2.695c8.571-21.354,10.116-25.202,22.75-28.476
		c2.152-0.552,3.713-2.382,3.883-4.554C206.129,160.587,204.878,158.577,202.774,157.668z"/>
</g>
<g>
</g>
<g>
</g>
<g>
</g>
<g>
</g>
<g>
</g>
<g>
</g>
<g>
</g>
<g>
</g>
<g>
</g>
<g>
</g>
<g>
</g>
<g>
</g>
<g>
</g>
<g>
</g>
<g>
</g>
</svg>
