<?xml version="1.0" ?><!DOCTYPE svg  PUBLIC '-//W3C//DTD SVG 1.1 Tiny//EN'  'http://www.w3.org/Graphics/SVG/1.1/DTD/svg11-tiny.dtd'><svg baseProfile="tiny" height="128px" id="Layer_1" overflow="scroll" version="1.1" viewBox="0 0 128 128" width="128px" xml:space="preserve" xmlns="http://www.w3.org/2000/svg" xmlns:xlink="http://www.w3.org/1999/xlink"><g><path d="M65.8,55.8c0,1-0.8,1.7-1.7,1.7c-1,0-1.7-0.8-1.7-1.7l-0.1-37c0-1,0.8-1.7,1.7-1.7l13.4-0.2   c1,0,1.8,0.8,1.8,1.7c0,1-0.8,1.8-1.7,1.8l-11.7,0.2L65.8,55.8z" fill="#000"/><path d="M64,53.9H41.7c0-12.3,10-22.3,22.3-22.3c12.3,0,22.3,10,22.3,22.3H64z" fill="#000" fill-rule="evenodd"/><path d="M41.4,56.6h45.3L80,104.2c-0.5,3.8-3.1,7-7,7H53.9c-3.8,0-6.5-3.2-7-7L41.4,56.6z" fill="#000" fill-rule="evenodd"/><polygon fill="#000" fill-rule="evenodd" points="84.7,70.6 82,89.7 45.3,89.7 43,70.6  "/><path d="M63.8,73c4,0,7.2,3.2,7.2,7.2s-3.2,7.2-7.2,7.2c-4,0-7.2-3.2-7.2-7.2S59.9,73,63.8,73" fill="#000" fill-rule="evenodd"/><path d="M41.6,52h44.9c1.9,0,3.5,1.6,3.5,3.5v0c0,1.9-1.6,3.5-3.5,3.5H41.6   c-1.9,0-3.5-1.6-3.5-3.5v0C38.1,53.6,39.6,52,41.6,52" fill="#000" fill-rule="evenodd"/></g></svg>